<svg xmlns="http://www.w3.org/2000/svg" viewBox="0 0 800 202"><defs><style>.cls-1{fill:none;stroke:#000;}.cls-1,.cls-2,.cls-8,.cls-9{stroke-miterlimit:10;}.cls-2{fill:#d5e8d4;stroke:#82b366;}.cls-11,.cls-12,.cls-13,.cls-14,.cls-15,.cls-3,.cls-4,.cls-5,.cls-7{isolation:isolate;}.cls-10,.cls-11,.cls-12,.cls-13,.cls-14,.cls-15,.cls-4,.cls-5,.cls-7{font-size:14px;font-family:Calibri, Calibri;}.cls-14,.cls-4{letter-spacing:-0.01em;}.cls-6{letter-spacing:-0.02em;}.cls-7{letter-spacing:-0.03em;}.cls-8{fill:#f8cecc;stroke:#b85450;}.cls-9{fill:#fff2cc;stroke:#d8b85a;}.cls-10,.cls-12,.cls-13,.cls-14,.cls-15{text-decoration:underline;}.cls-11,.cls-15{letter-spacing:-0.02em;}.cls-12{letter-spacing:-0.08em;}</style></defs><title>diagram1_00</title><g id="Layer_2" data-name="Layer 2"><g id="diagram"><line class="cls-1" x1="159" y1="101" x2="81" y2="101"/><line class="cls-1" x1="159" y1="89" x2="120.5" y2="22.5"/><line class="cls-1" x1="159" y1="113" x2="119.5" y2="180.5"/><line class="cls-1" x1="639.5" y1="112.5" x2="679.5" y2="180.5"/><line class="cls-1" x1="639.5" y1="89.5" x2="679.5" y2="22.5"/><rect class="cls-2" x="558.5" y="81.5" width="81" height="41"/><rect class="cls-2" x="158.5" y="80.5" width="81" height="41"/><line class="cls-1" x1="439.5" y1="101.5" x2="558.5" y2="101.5"/><line class="cls-1" x1="418.5" y1="80.5" x2="438.5" y2="41.5"/><line class="cls-1" x1="639.5" y1="101.5" x2="718.5" y2="101.5"/><line class="cls-1" x1="240" y1="101" x2="359" y2="101"/><g class="cls-3"><text class="cls-4" transform="translate(585.36 104.46)">C</text><text class="cls-5" transform="translate(593.38 104.46)">a<tspan class="cls-6" x="6.71" y="0">r</tspan><tspan x="11.35" y="0">s</tspan></text></g><g class="cls-3"><text class="cls-7" transform="translate(175.83 104)">P</text><text class="cls-5" transform="translate(182.93 104)">e<tspan class="cls-6" x="6.97" y="0">r</tspan><tspan x="11.61" y="0">sons</tspan></text></g><rect class="cls-8" x="370.86" y="72.86" width="57.28" height="57.28" transform="translate(45.24 312.22) rotate(-45)"/><text class="cls-5" transform="translate(389.13 104.46)">Has</text><ellipse class="cls-9" cx="439.5" cy="21" rx="40" ry="20.5"/><g class="cls-3"><text class="cls-5" transform="translate(427.5 24)">D</text><text class="cls-5" transform="translate(436.82 24)">a</text><text class="cls-4" transform="translate(443.52 24)">t</text><text class="cls-5" transform="translate(448.07 24)">e</text></g><ellipse class="cls-9" cx="80.5" cy="21" rx="40" ry="20.5"/><text class="cls-10" transform="translate(73.5 24)">CF</text><ellipse class="cls-9" cx="40.5" cy="101" rx="40" ry="20.5"/><text class="cls-5" transform="translate(25.5 104)">Name</text><ellipse class="cls-9" cx="79.5" cy="181" rx="40" ry="20.5"/><g class="cls-3"><text class="cls-5" transform="translate(44.48 184.81) rotate(0.3)">D</text><text class="cls-4" transform="translate(53.09 184.86) rotate(0.3)">a</text><text class="cls-4" transform="translate(59.67 184.89) rotate(0.3)">t</text><text class="cls-5" transform="translate(64.21 184.91) rotate(0.3)">e of Birth</text></g><ellipse class="cls-9" cx="719.5" cy="21" rx="40" ry="20.5"/><ellipse class="cls-9" cx="759.5" cy="102" rx="40" ry="20.5"/><g class="cls-3"><text class="cls-5" transform="translate(745.5 104)">B</text><text class="cls-11" transform="translate(753.12 104)">r</text><text class="cls-5" transform="translate(757.71 104)">and</text></g><ellipse class="cls-9" cx="718.5" cy="181" rx="40" ry="20.5"/><text class="cls-5" transform="translate(705.5 185.06)">Color</text><g class="cls-3"><text class="cls-12" transform="translate(705 24.33)">T</text><text class="cls-13" transform="translate(710.73 24.33)">a</text><text class="cls-14" transform="translate(717.43 24.33)">r</text><text class="cls-15" transform="translate(722.12 24.33)">g</text><text class="cls-13" transform="translate(728.45 24.33)">a</text></g></g></g></svg>